# xmcd
# 
# Track frame offsets:
#     150
#     24447
#     52055
# 
# Disc length: 1016
# 
# Revision: 1
# Processed by: cddbd v1.5.2PL0 Copyright (c) Steve Scherf et al.
# Submitted via: fre:ac v1.0.17
# 
DISCID=1f03f603
DTITLE=Barbier guest vocal IZUMI SAKAI - LOVE ～眠れずに君の横顔ずっと見ていた～
DYEAR=1996
DGENRE=JPop
TTITLE0=LOVE
TTITLE1=I still remember
TTITLE2=LOVE（ORIGINAL KARAOKE）
EXTD=
EXTT0=
EXTT1=
EXTT2=
PLAYORDER=
